PathFileType	4	(X/Y/Z)	C:\Users\Basilio\Documents\Thesis Gigler\squatting_fais\c3dfiles\073\SJ_pre3\markers_experimental.trc
DataRate	CameraRate	NumFrames	NumMarkers	Units	OrigDataRate	OrigDataStartFrame	OrigNumFrames
200.000000	200.000000	4	61	mm	200.000000	660	1320
Frame#	Time	FHD			LBHD			RBHD			C7			T10			CLAV			LSHO			LUUPA			LMUPA			LDUPA			LLEP			LMEP			LRAD			LUL			LRFIN			RSHO			RUPA1			RMUPA			RDUPA			RLEP			RMEP			RRAD			RUL			RUFIN			LASI			RASI			USACR			LSACR			RSACR			LTHI1			LTHI2			LTHI3			LTHI4			LLFC			LMFC			LTIB1			LTIB2			LTIB3			LTIB4			LLMAL			LMMAL			LHEE			LMT1			LMT2			LMT5			RTHI			RTHI2			RTHI3			RTHI4			RLFC			RMFC			RTIB1			RTIB2			RTIB3			RTIB4			RLMAL			RMMAL			RHEE			RMT1			RMT2			RMT5			
		X1	Y1	Z1	X2	Y2	Z2	X3	Y3	Z3	X4	Y4	Z4	X5	Y5	Z5	X6	Y6	Z6	X7	Y7	Z7	X8	Y8	Z8	X9	Y9	Z9	X10	Y10	Z10	X11	Y11	Z11	X12	Y12	Z12	X13	Y13	Z13	X14	Y14	Z14	X15	Y15	Z15	X16	Y16	Z16	X17	Y17	Z17	X18	Y18	Z18	X19	Y19	Z19	X20	Y20	Z20	X21	Y21	Z21	X22	Y22	Z22	X23	Y23	Z23	X24	Y24	Z24	X25	Y25	Z25	X26	Y26	Z26	X27	Y27	Z27	X28	Y28	Z28	X29	Y29	Z29	X30	Y30	Z30	X31	Y31	Z31	X32	Y32	Z32	X33	Y33	Z33	X34	Y34	Z34	X35	Y35	Z35	X36	Y36	Z36	X37	Y37	Z37	X38	Y38	Z38	X39	Y39	Z39	X40	Y40	Z40	X41	Y41	Z41	X42	Y42	Z42	X43	Y43	Z43	X44	Y44	Z44	X45	Y45	Z45	X46	Y46	Z46	X47	Y47	Z47	X48	Y48	Z48	X49	Y49	Z49	X50	Y50	Z50	X51	Y51	Z51	X52	Y52	Z52	X53	Y53	Z53	X54	Y54	Z54	X55	Y55	Z55	X56	Y56	Z56	X57	Y57	Z57	X58	Y58	Z58	X59	Y59	Z59	X60	Y60	Z60	X61	Y61	Z61	

661	3.3	93.39364624023439	970.7739868164065	-970.2950439453127	-44.8540267944336	969.7102050781252	-992.9661254882815	-70.64427185058595	962.7636718750002	-859.699890136719	-104.0742645263672	922.341735839844	-926.342468261719	-410.6434936523439	807.1947021484377	-925.4821777343752	-85.86401367187501	765.8202514648439	-923.1538085937502	-72.37723541259767	792.9663696289065	-1088.685546875	-152.0284271240235	801.3989257812502	-1218.636596679688	-184.3697204589844	763.5712280273439	-1226.909423828125	-193.6037139892579	800.0007324218752	-1274.656494140625	-282.2530517578126	786.7744140625002	-1339.82666015625	-325.0360717773438	859.5893554687502	-1326.035400390625	-471.1729736328126	699.7053222656251	-1165.35693359375	-450.5926513671876	637.5668945312501	-1201.502563476563	-456.7311096191407	682.2553100585939	-1103.739868164063	-79.96994781494142	789.9202270507815	-759.5581054687501	-170.1021728515625	824.3916015625002	-618.1705322265626	-202.1981811523438	788.9858398437502	-605.0618286132814	-217.9530792236329	834.0985107421877	-568.1694946289064	-297.3595581054688	818.1188964843752	-513.9392089843751	-348.3418579101563	884.5986328125002	-559.6644287109376	-489.6343688964845	709.6106567382814	-674.0523071289064	-461.8468017578126	648.9366455078126	-637.6518554687501	-454.4146118164064	685.3787841796876	-734.8669433593751	-446.5122985839845	607.3491821289064	-1047.35546875	-443.4810485839845	586.3987426757814	-811.0383911132815	-532.6241455078126	757.8981933593751	-914.363708496094	-563.2267456054689	747.5541992187501	-941.437438964844	-564.3696899414064	745.2806396484376	-885.606140136719	-360.3353576660157	526.8697509765626	-1169.343383789063	-274.4570312500001	527.8492431640626	-1177.71923828125	-253.3535308837891	561.3840332031251	-1147.727783203125	-239.9101867675782	476.6777954101564	-1179.792724609375	-202.3976593017579	441.5277099609376	-1186.234985351563	-181.2960662841797	423.4495544433595	-1062.029418945313	-220.0877075195313	252.9963836669922	-1151.611206054688	-296.2774658203126	253.6890411376954	-1198.966918945313	-266.1392822265626	227.188949584961	-1181.039916992188	-303.9525756835938	159.3051910400391	-1148.07861328125	-418.9276733398439	87.72142791748048	-1174.789428710938	-394.9385375976564	102.485954284668	-1087.94091796875	-481.1876220703126	53.46660614013673	-1129.934936523438	-251.6093444824219	54.05782318115236	-1126.987548828125	-255.3695983886719	55.18267059326173	-1165.049072265625	-297.7379455566407	37.24705886840821	-1216.16015625	-437.3171386718751	533.9489746093751	-684.0206298828126	-371.9509887695313	536.2474975585939	-675.6566162109376	-354.3408508300782	563.4885253906251	-684.3430786132814	-318.8220214843751	473.2136840820314	-666.1721801757814	-198.9786987304688	408.6804199218751	-658.8329467773439	-176.7876129150391	386.7552795410157	-777.479431152344	-226.6544799804688	252.0069580078126	-734.6617431640626	-299.6614990234376	207.3395233154297	-667.1523437500001	-279.8153381347657	190.4308013916016	-707.0640258789064	-318.9163208007813	161.6277923583985	-738.6800537109376	-436.132781982422	85.8904266357422	-681.5750732421876	-414.1578674316407	94.69750976562501	-770.1759033203127	-508.0804748535157	48.42269515991212	-739.5025024414064	-280.5704956054688	53.85506439208986	-702.4460449218751	-289.2470092773438	55.95287322998048	-662.3846435546876	-338.9459228515626	36.94892120361329	-621.4101562500001	
662	3.305	93.90088653564455	970.5501098632815	-970.5045166015627	-44.69649124145509	969.3518676757815	-992.9444580078127	-70.43496704101564	962.411804199219	-859.7002563476565	-103.7726745605469	922.0411376953127	-926.342224121094	-410.4576721191407	807.0566406250002	-925.439636230469	-85.72500610351564	765.5684814453126	-923.1748657226565	-72.23754882812501	792.514587402344	-1088.704711914063	-151.7509155273438	801.0593872070315	-1218.549926757813	-184.0517578125	763.3516845703126	-1227.05322265625	-193.4341430664063	799.8077392578127	-1274.576049804688	-282.0161743164063	786.5916137695315	-1339.805908203125	-324.7418518066407	859.4498291015627	-1326.064331054688	-470.9529724121095	699.6442260742189	-1165.403930664063	-450.4446105957032	637.5437011718751	-1201.608032226563	-456.6014099121095	682.2310180664064	-1103.775268554688	-79.77274322509767	789.5427246093752	-759.5322875976564	-169.9233856201172	824.1018066406252	-618.1436157226564	-202.0163116455079	788.7027587890627	-605.1115722656251	-217.7904663085938	833.8601074218752	-568.1813354492189	-297.1792297363282	817.9226074218752	-513.9650268554689	-348.0984802246094	884.4646606445315	-559.6746826171876	-489.5421142578126	709.5698242187501	-674.1231689453126	-461.7586975097657	648.8400878906251	-637.6697998046876	-454.3710021972657	685.3136596679689	-734.8743896484376	-446.4199829101564	607.0810546875001	-1047.183227539063	-443.651580810547	586.2677001953126	-810.870056152344	-532.4665527343751	757.8316040039064	-914.397888183594	-563.0722656250001	747.4963989257814	-941.4620361328127	-564.2811889648439	745.2598876953126	-885.6458740234377	-360.2100219726563	526.7656860351564	-1169.332153320313	-274.3359680175782	527.8061523437501	-1177.702758789063	-253.2393035888672	561.3277587890626	-1147.688842773438	-239.8401641845704	476.5914306640626	-1179.76806640625	-202.2740173339844	441.4735717773439	-1186.20849609375	-181.1986846923828	423.352996826172	-1061.98974609375	-220.0511474609376	252.9267272949219	-1151.570190429688	-296.2436218261719	253.6647491455079	-1198.921752929688	-266.1510314941407	227.1208190917969	-1181.045166015625	-303.9221801757813	159.2194976806641	-1148.1015625	-418.902801513672	87.73580932617189	-1174.779296875	-394.9330444335939	102.4636535644532	-1087.916625976563	-481.1944885253907	53.45581054687501	-1129.941528320313	-251.610824584961	54.05246734619142	-1126.980346679688	-255.3788146972657	55.17187500000001	-1165.035034179688	-297.7883911132813	37.26580429077149	-1216.1982421875	-437.2054748535157	533.8836059570314	-684.0501708984376	-371.8483581542969	536.1881713867189	-675.7397460937501	-354.2502746582032	563.4168090820314	-684.4502563476564	-318.7088623046876	473.1210327148439	-666.3032226562501	-198.8831481933594	408.6210327148439	-658.9321899414064	-176.7245025634766	386.7009277343751	-777.5710449218752	-226.6878356933594	251.9486083984376	-734.8016357421876	-299.5880737304688	207.3269500732422	-667.1939697265626	-279.7937622070313	190.4031982421875	-707.0474243164064	-319.0502624511719	161.6832580566407	-738.7355346679689	-436.1218566894532	85.87997436523439	-681.5755004882814	-414.2607421875001	94.68934631347658	-770.2056884765627	-508.0908508300782	48.42435836791994	-739.5270996093751	-280.5663452148438	53.86764907836915	-702.4751586914064	-289.2357177734376	55.93519210815431	-662.3720703125001	-338.9186401367188	36.9563217163086	-621.4003295898439	
663	3.31	93.90238189697267	970.0911254882815	-970.4189453125002	-44.45047760009766	968.9277343750002	-992.9110107421877	-70.17489624023439	961.9029541015627	-859.5964355468752	-103.486572265625	921.733825683594	-926.3245239257815	-410.2042846679689	806.9287109375002	-925.4284667968752	-85.5934295654297	765.2454833984376	-923.1566162109377	-72.16062927246095	792.0671997070315	-1088.656860351563	-151.3789367675782	800.7993164062502	-1218.640991210938	-183.7740020751953	763.0636596679689	-1227.071899414063	-193.0912170410157	799.677185058594	-1274.722900390625	-281.7579650878907	786.3391113281252	-1339.86474609375	-324.4412536621094	859.2764282226565	-1326.068237304688	-470.8008422851564	699.6129150390626	-1165.352661132813	-450.1835937500001	637.6454467773439	-1201.795043945313	-456.413787841797	682.1481933593751	-1103.769287109375	-79.56899261474611	789.1601562500002	-759.4951782226564	-169.7133483886719	823.8184204101565	-618.1346435546876	-201.8210144042969	788.4523925781252	-605.0903320312501	-217.557601928711	833.6007080078127	-568.1642456054689	-296.9549560546876	817.7029418945315	-513.9584960937501	-347.8791198730469	884.2946777343752	-559.6726684570314	-489.4272460937501	709.4897460937501	-674.1292724609376	-461.7101440429689	648.7886352539064	-637.7087402343751	-454.2581176757814	685.2413940429689	-734.9115600585939	-446.4252929687501	607.0772705078126	-1047.385375976563	-443.5630493164064	586.0309448242189	-811.1130371093752	-532.3328247070314	757.7549438476564	-914.4250488281252	-562.9584960937501	747.4575805664064	-941.4989013671877	-564.1314086914064	745.1754150390626	-885.6629638671877	-360.0796813964844	526.7460937500001	-1169.357299804688	-274.1601867675782	527.7127685546876	-1177.653564453125	-253.163558959961	561.2095947265626	-1147.634765625	-239.6339569091797	476.5353088378907	-1179.7255859375	-202.0626983642579	441.3543701171876	-1186.18115234375	-181.1185607910157	423.2383728027345	-1061.960815429688	-219.9882507324219	252.8361968994141	-1151.576904296875	-296.2161865234376	253.6696166992188	-1198.918090820313	-266.1271667480469	227.1567993164063	-1181.037109375	-303.8472900390626	159.2296600341797	-1148.08203125	-418.924041748047	87.75157928466798	-1174.772338867188	-394.915496826172	102.4826431274414	-1087.892822265625	-481.2123107910157	53.44053268432619	-1129.96484375	-251.6262664794922	54.04294967651369	-1126.979248046875	-255.3170623779297	55.23070144653322	-1165.069580078125	-297.7411804199219	37.23390579223634	-1216.22705078125	-437.1188964843751	533.7799072265626	-684.0772705078126	-371.7843017578126	536.0834960937501	-675.7399902343751	-354.1683044433594	563.3190917968751	-684.5283813476564	-318.6414489746094	473.0728149414064	-666.3053588867189	-198.8415679931641	408.543426513672	-659.0338745117189	-176.6652526855469	386.6616210937501	-777.664489746094	-226.596908569336	251.9208984375001	-734.8054809570314	-299.5731506347657	207.2700805664063	-667.2191772460939	-279.7157897949219	190.3711547851563	-707.0976562500001	-318.8124389648438	161.5241851806641	-738.7496337890626	-436.1292419433595	85.93735504150392	-681.5704345703126	-414.2194824218751	94.69600677490236	-770.1998291015627	-508.058074951172	48.40238571166994	-739.5413208007814	-280.5543212890626	53.90486907958986	-702.4491577148439	-289.2290039062501	55.96166992187501	-662.4259643554689	-338.9484558105469	36.95060348510743	-621.4240112304689	
664	3.315	93.92864227294923	969.599304199219	-970.3020019531252	-44.0508041381836	968.539001464844	-992.9353027343752	-69.92533111572267	961.6658935546877	-859.4905395507815	-103.2298278808594	921.3474731445315	-926.2370605468752	-410.0375366210939	806.7952270507815	-925.401062011719	-85.30283355712892	764.9210815429689	-923.093444824219	-72.12371063232423	791.5842285156252	-1088.693115234375	-151.1296844482422	800.4733886718752	-1218.641967773438	-183.6387176513672	762.7561035156251	-1226.913208007813	-192.7297363281251	799.493835449219	-1274.82763671875	-281.5887145996094	786.1528320312502	-1339.890991210938	-324.1548156738282	859.127868652344	-1326.037841796875	-470.612030029297	699.5169677734376	-1165.382202148438	-450.0311584472657	637.6155395507814	-1201.9677734375	-456.2792358398439	682.0920410156251	-1103.777221679688	-79.37330627441408	788.7741699218752	-759.4871826171876	-169.5342712402344	823.4837646484377	-618.1232299804689	-201.7208862304688	788.2122192382815	-605.0917968750001	-217.3367156982422	833.361511230469	-568.1747436523439	-296.7937316894532	817.512145996094	-513.9373779296876	-347.6852722167969	884.1018066406252	-559.7006835937501	-489.3414611816407	709.4149169921876	-674.1948242187501	-461.586151123047	648.6811523437501	-637.7149047851564	-454.1376342773439	685.1344604492189	-734.9445190429689	-446.5650024414064	606.9927978515626	-1047.563110351563	-443.4297790527345	585.8697509765626	-811.3203125000002	-532.1717529296876	757.7078857421876	-914.450866699219	-562.9315795898439	747.3961791992189	-941.4757080078127	-564.0097045898439	745.1142578125001	-885.709167480469	-359.9553833007813	526.7059326171876	-1169.314697265625	-273.9781494140626	527.7201538085939	-1177.606201171875	-252.9729766845704	561.1699218750001	-1147.59619140625	-239.4866333007813	476.4580383300782	-1179.694946289063	-201.9502258300782	441.3042907714845	-1186.13525390625	-181.0342254638672	423.1906127929689	-1061.930541992188	-219.9319305419922	252.7941894531251	-1151.5244140625	-296.1379699707032	253.6298370361329	-1198.88671875	-265.9947814941407	227.0992279052735	-1181.031127929688	-303.8653869628907	159.1827545166016	-1148.10107421875	-418.9212951660157	87.7742385864258	-1174.771484375	-394.8811950683595	102.4577865600586	-1087.878540039063	-481.1912536621095	53.46742248535158	-1129.93505859375	-251.6180114746094	54.04840087890626	-1126.9853515625	-255.3026275634766	55.21094894409181	-1165.045288085938	-297.7088012695313	37.26245117187501	-1216.245239257813	-437.0225219726564	533.7218017578126	-684.1483154296876	-371.6776733398438	536.0238647460939	-675.7451171875001	-354.0360412597657	563.2194824218751	-684.5916748046876	-318.5189514160157	472.9967041015626	-666.3579711914064	-198.7390136718751	408.5017395019532	-659.0963134765626	-176.5833129882813	386.592010498047	-777.759704589844	-226.6253051757813	251.8100738525391	-734.8035888671876	-299.5443115234376	207.2259979248047	-667.2940673828126	-279.7142639160157	190.3307189941407	-707.1173706054689	-318.8387451171876	161.4949340820313	-738.7391967773439	-436.1327514648439	85.93434906005861	-681.6087036132814	-414.2200012207032	94.69588470458986	-770.2002563476565	-508.0932617187501	48.40699386596681	-739.5552368164064	-280.5116577148438	53.85272598266603	-702.4082641601564	-289.2103881835938	55.95758438110353	-662.3988037109376	-338.9475708007813	36.96309661865235	-621.4169311523439	
